<?xml version="1.0" encoding="UTF-8"?>
<svg id="Layer_1" data-name="Layer 1" xmlns="http://www.w3.org/2000/svg" viewBox="0 0 1500 500">
  <defs>
    <style>
      .cls-1 {
        fill: #3c5233;
      }

      .cls-2 {
        fill: #58784b;
      }
    </style>
  </defs>
  <path class="cls-1" d="M41.3,405.9788L153.4311,94.0212h79.4072l112.5668,311.9577h-81.1531l-18.3246-56.2828h-109.0761l-17.8889,56.2828H41.3ZM154.7392,294.2845h73.2994l-23.56-75.4798-12.2167-44.0672h-.8724c-4.95,18.6175-9.1628,33.3087-12.6535,44.0672l-23.9967,75.4798Z"/>
  <path class="cls-1" d="M345.4051,405.9788V94.0212h149.217c31.9932,0,58.1714,7.9272,78.5348,23.7773,20.3559,15.8586,30.5413,37.8912,30.5413,66.1018,0,37.8145-18.0391,62.9787-54.1024,75.4798v1.3081c26.1783,8.7261,41.2987,27.7803,45.3763,57.1584,1.7448,10.1833,2.9783,22.7611,3.7079,37.7378.7233,14.9852,1.6702,26.1783,2.8366,33.5963,1.1589,7.418,3.3405,11.7129,6.5446,12.8718v3.9263h-75.0452c-2.3306-1.4508-4.1447-5.6732-5.4538-12.6524-1.3081-6.9813-2.3988-16.8663-3.2723-29.6679-.8724-12.7973-1.895-22.8336-3.0539-30.1067-4.0765-29.6679-21.3785-44.5039-51.9198-44.5039h-46.6844v116.9309h-77.2267ZM422.6318,231.8938h58.0276c15.1215,0,26.615-3.3405,34.4687-10.0342,7.8537-6.6894,11.78-15.995,11.78-27.9252,0-11.6298-3.7836-21.0099-11.3443-28.1425-7.5672-7.124-18.6175-10.6882-33.1585-10.6882h-59.7735v76.79Z"/>
  <path class="cls-1" d="M608.0612,405.9788V94.0212h150.525c31.1208,0,55.4115,7.1304,72.8637,21.3785,18.0316,14.8361,27.0507,34.7616,27.0507,59.7746,0,29.6679-14.5485,50.0301-43.6304,61.0826v1.3081c17.1592,5.2365,30.7597,14.6912,40.7938,28.3598,10.0352,13.6771,15.0534,29.6679,15.0534,47.9935,0,30.2558-10.6221,53.524-31.8504,69.8087-18.9115,14.8361-44.5028,22.252-76.79,22.252h-154.0157ZM684.4145,217.4966h62.8285c11.3433,0,20.4315-2.761,27.269-8.2915,6.8311-5.522,10.2525-13.2319,10.2525-23.1233,0-9.5996-3.3468-17.1582-10.0342-22.6887-6.6948-5.522-15.7074-8.2894-27.0517-8.2894h-63.2641v62.3928ZM684.4145,344.0249h68.9363c12.5033,0,22.4703-3.3405,29.8873-10.0363,7.417-6.6873,11.126-15.5583,11.126-26.615,0-11.9217-3.9274-21.1591-11.7811-27.7036-7.8526-6.5446-17.8878-9.8169-30.1046-9.8169h-68.0639v74.1718Z"/>
  <path class="cls-1" d="M1196.0438,405.9788V94.0212h149.217c31.9932,0,58.1714,7.9272,78.5348,23.7773,20.3559,15.8586,30.5413,37.8912,30.5413,66.1018,0,37.8145-18.0391,62.9787-54.1024,75.4798v1.3081c26.1783,8.7261,41.2987,27.7803,45.3763,57.1584,1.7448,10.1833,2.9783,22.7611,3.7079,37.7378.7233,14.9852,1.6702,26.1783,2.8366,33.5963,1.1589,7.418,3.3405,11.7129,6.5446,12.8718v3.9263h-75.0452c-2.3306-1.4508-4.1447-5.6732-5.4538-12.6524-1.3081-6.9813-2.3988-16.8663-3.2723-29.6679-.8724-12.7973-1.895-22.8336-3.0539-30.1067-4.0765-29.6679-21.3785-44.5039-51.9198-44.5039h-46.6844v116.9309h-77.2267ZM1273.2706,231.8938h58.0276c15.1215,0,26.615-3.3405,34.4687-10.0342,7.8537-6.6894,11.78-15.995,11.78-27.9252,0-11.6298-3.7836-21.0099-11.3443-28.1425-7.5672-7.124-18.6175-10.6882-33.1585-10.6882h-59.7735v76.79Z"/>
  <path class="cls-2" d="M937.3318,87.2593l258.712,66.6145-66.3046,258.8669-259.0218-66.4596,66.6145-259.0218ZM1064.2098,301.3942l21.4171-78.7439-78.7439-21.2561-21.2561,78.5829,78.5829,21.4171Z"/>
</svg>